<svg xmlns="http://www.w3.org/2000/svg" width="420" height="2317" viewBox="0 0 420 2317" role="img" aria-labelledby="title desc"><title id="title">namioshi公式配置候補A・B・C縦比較</title><desc id="desc">スマートフォン向けに3候補を縦並びで示す。</desc><defs><linearGradient id="water" x1="0" y1="0" x2="0" y2="1"><stop offset="0" stop-color="#09263d"/><stop offset=".55" stop-color="#083047"/><stop offset="1" stop-color="#03101f"/></linearGradient><pattern id="grid" width="32" height="32" patternUnits="userSpaceOnUse"><path d="M32 0H0V32" fill="none" stroke="#9fe9ff" stroke-opacity=".14"/></pattern></defs><rect width="420" height="2317" fill="#07111f"/><text x="18" y="34" font-family="system-ui,sans-serif" font-size="22" font-weight="800" fill="#f2fbff">公式配置候補 比較</text><text x="18" y="58" font-family="system-ui,sans-serif" font-size="12" fill="#b9d7e6">採用状態: 人の判断待ち</text><rect x="12" y="78" width="396" height="713" rx="18" fill="#0b1a28" stroke="#294b5d"/><text x="28" y="112" font-family="system-ui,sans-serif" font-size="20" font-weight="800" fill="#f3fbff">候補A・交差流</text><g><rect x="57" y="130" width="306" height="544" rx="12" fill="url(#water)" stroke="#57839a" stroke-width="2"/><rect x="57" y="130" width="306" height="544" rx="12" fill="url(#grid)" opacity=".45"/><polyline points="131.8,283 140.3,287.25 148.8,291.5 157.3,295.75 165.8,300 174.3,304.25 182.8,308.5 191.3,312.75 199.8,317 208.3,321.25 216.8,325.5" fill="none" stroke="#7de7ff" stroke-opacity=".42" stroke-width="1.7" stroke-dasharray="6 5"/><polyline points="288.2,407.1 280.55,413.05 272.9,419 265.25,424.95 257.6,430.9 249.95,436.85 242.3,442.8 234.65,448.75 227,454.7 219.35,460.65 211.7,466.6" fill="none" stroke="#d8ff9a" stroke-opacity=".42" stroke-width="1.7" stroke-dasharray="6 5"/><polyline points="155.6,555 161.55,549.9 167.5,544.8 173.45,539.7 179.4,534.6 185.35,529.5 191.3,524.4 197.25,519.3 203.2,514.2 209.15,509.1 215.1,504" fill="none" stroke="#d4a8ff" stroke-opacity=".42" stroke-width="1.7" stroke-dasharray="6 5"/><line x1="119.9" y1="366.3" x2="196.4" y2="320.4" stroke="#ff8aa8" stroke-opacity=".24" stroke-width="8.5" stroke-linecap="round"/><line x1="119.9" y1="366.3" x2="196.4" y2="320.4" stroke="#ffc0cf" stroke-width="2.55" stroke-linecap="round"/><line x1="225.3" y1="344.2" x2="306.9" y2="391.8" stroke="#7cecff" stroke-opacity=".24" stroke-width="8.5" stroke-linecap="round"/><line x1="225.3" y1="344.2" x2="306.9" y2="391.8" stroke="#c2f6ff" stroke-width="2.55" stroke-linecap="round"/><line x1="121.6" y1="490.4" x2="201.5" y2="536.3" stroke="#ff8aa8" stroke-opacity=".24" stroke-width="8.5" stroke-linecap="round"/><line x1="121.6" y1="490.4" x2="201.5" y2="536.3" stroke="#ffc0cf" stroke-width="2.55" stroke-linecap="round"/><line x1="232.1" y1="526.1" x2="312" y2="478.5" stroke="#7cecff" stroke-opacity=".24" stroke-width="8.5" stroke-linecap="round"/><line x1="232.1" y1="526.1" x2="312" y2="478.5" stroke="#c2f6ff" stroke-width="2.55" stroke-linecap="round"/><circle cx="133.5" cy="249" r="11.05" fill="#ffb45b" fill-opacity=".12" stroke="#ffbe73" stroke-width="1.7"/><text x="133.5" y="252.4" text-anchor="middle" font-size="10.2" font-weight="700" fill="#ffe4bd">1</text><circle cx="210" cy="419" r="11.05" fill="#ffb45b" fill-opacity=".12" stroke="#ffbe73" stroke-width="1.7"/><text x="210" y="422.4" text-anchor="middle" font-size="10.2" font-weight="700" fill="#ffe4bd">2</text><circle cx="286.5" cy="546.5" r="11.05" fill="#ffb45b" fill-opacity=".12" stroke="#ffbe73" stroke-width="1.7"/><text x="286.5" y="549.9" text-anchor="middle" font-size="10.2" font-weight="700" fill="#ffe4bd">3</text><circle cx="131.8" cy="283" r="23.8" fill="#7de7ff" fill-opacity=".13"/><circle cx="131.8" cy="283" r="13.6" fill="#7de7ff" stroke="#fff" stroke-width="1.7"/><text x="131.8" y="286.4" text-anchor="middle" font-size="10.2" font-weight="800" fill="#07111f">A</text><circle cx="288.2" cy="407.1" r="23.8" fill="#d8ff9a" fill-opacity=".13"/><circle cx="288.2" cy="407.1" r="13.6" fill="#d8ff9a" stroke="#fff" stroke-width="1.7"/><text x="288.2" y="410.5" text-anchor="middle" font-size="10.2" font-weight="800" fill="#07111f">B</text><circle cx="155.6" cy="555" r="23.8" fill="#d4a8ff" fill-opacity=".13"/><circle cx="155.6" cy="555" r="13.6" fill="#d4a8ff" stroke="#fff" stroke-width="1.7"/><text x="155.6" y="558.4" text-anchor="middle" font-size="10.2" font-weight="800" fill="#07111f">C</text></g><text x="28" y="695" font-family="system-ui,sans-serif" font-size="12" fill="#c6e1ed">ガラス反射 359</text><text x="28" y="711" font-family="system-ui,sans-serif" font-size="12" fill="#c6e1ed">2回反射 652</text><text x="28" y="727" font-family="system-ui,sans-serif" font-size="12" fill="#c6e1ed">共通3タップ 2747点</text><text x="28" y="743" font-family="system-ui,sans-serif" font-size="12" fill="#c6e1ed">ビーコン間隔 44.18px</text><text x="28" y="759" font-family="system-ui,sans-serif" font-size="12" fill="#ffb2c5">近接警告 2件</text><text x="28" y="775" font-family="system-ui,sans-serif" font-size="12" fill="#c6e1ed">端余白 60px</text><rect x="12" y="813" width="396" height="713" rx="18" fill="#0b1a28" stroke="#294b5d"/><text x="28" y="847" font-family="system-ui,sans-serif" font-size="20" font-weight="800" fill="#f3fbff">候補B・段流路</text><g><rect x="57" y="865" width="306" height="544" rx="12" fill="url(#water)" stroke="#57839a" stroke-width="2"/><rect x="57" y="865" width="306" height="544" rx="12" fill="url(#grid)" opacity=".45"/><polyline points="157.3,1001 164.1,1006.95 170.9,1012.9 177.7,1018.85 184.5,1024.8 191.3,1030.75 198.1,1036.7 204.9,1042.65 211.7,1048.6 218.5,1054.55 225.3,1060.5" fill="none" stroke="#7de7ff" stroke-opacity=".42" stroke-width="1.7" stroke-dasharray="6 5"/><polyline points="264.4,1148.9 258.45,1143.8 252.5,1138.7 246.55,1133.6 240.6,1128.5 234.65,1123.4 228.7,1118.3 222.75,1113.2 216.8,1108.1 210.85,1103 204.9,1097.9" fill="none" stroke="#d8ff9a" stroke-opacity=".42" stroke-width="1.7" stroke-dasharray="6 5"/><polyline points="182.8,1312.1 190.45,1307.85 198.1,1303.6 205.75,1299.35 213.4,1295.1 221.05,1290.85 228.7,1286.6 236.35,1282.35 244,1278.1 251.65,1273.85 259.3,1269.6" fill="none" stroke="#d4a8ff" stroke-opacity=".42" stroke-width="1.7" stroke-dasharray="6 5"/><line x1="106.3" y1="1065.6" x2="184.5" y2="1101.3" stroke="#7cecff" stroke-opacity=".24" stroke-width="8.5" stroke-linecap="round"/><line x1="106.3" y1="1065.6" x2="184.5" y2="1101.3" stroke="#c2f6ff" stroke-width="2.55" stroke-linecap="round"/><line x1="235.5" y1="1046.9" x2="313.7" y2="1004.4" stroke="#ff8aa8" stroke-opacity=".24" stroke-width="8.5" stroke-linecap="round"/><line x1="235.5" y1="1046.9" x2="313.7" y2="1004.4" stroke="#ffc0cf" stroke-width="2.55" stroke-linecap="round"/><line x1="123.3" y1="1206.7" x2="203.2" y2="1162.5" stroke="#7cecff" stroke-opacity=".24" stroke-width="8.5" stroke-linecap="round"/><line x1="123.3" y1="1206.7" x2="203.2" y2="1162.5" stroke="#c2f6ff" stroke-width="2.55" stroke-linecap="round"/><line x1="228.7" y1="1230.5" x2="317.1" y2="1267.9" stroke="#7cecff" stroke-opacity=".24" stroke-width="8.5" stroke-linecap="round"/><line x1="228.7" y1="1230.5" x2="317.1" y2="1267.9" stroke="#c2f6ff" stroke-width="2.55" stroke-linecap="round"/><circle cx="133.5" cy="984" r="11.05" fill="#ffb45b" fill-opacity=".12" stroke="#ffbe73" stroke-width="1.7"/><text x="133.5" y="987.4" text-anchor="middle" font-size="10.2" font-weight="700" fill="#ffe4bd">1</text><circle cx="210" cy="1154" r="11.05" fill="#ffb45b" fill-opacity=".12" stroke="#ffbe73" stroke-width="1.7"/><text x="210" y="1157.4" text-anchor="middle" font-size="10.2" font-weight="700" fill="#ffe4bd">2</text><circle cx="286.5" cy="1281.5" r="11.05" fill="#ffb45b" fill-opacity=".12" stroke="#ffbe73" stroke-width="1.7"/><text x="286.5" y="1284.9" text-anchor="middle" font-size="10.2" font-weight="700" fill="#ffe4bd">3</text><circle cx="157.3" cy="1001" r="23.8" fill="#7de7ff" fill-opacity=".13"/><circle cx="157.3" cy="1001" r="13.6" fill="#7de7ff" stroke="#fff" stroke-width="1.7"/><text x="157.3" y="1004.4" text-anchor="middle" font-size="10.2" font-weight="800" fill="#07111f">A</text><circle cx="264.4" cy="1148.9" r="23.8" fill="#d8ff9a" fill-opacity=".13"/><circle cx="264.4" cy="1148.9" r="13.6" fill="#d8ff9a" stroke="#fff" stroke-width="1.7"/><text x="264.4" y="1152.3" text-anchor="middle" font-size="10.2" font-weight="800" fill="#07111f">B</text><circle cx="182.8" cy="1312.1" r="23.8" fill="#d4a8ff" fill-opacity=".13"/><circle cx="182.8" cy="1312.1" r="13.6" fill="#d4a8ff" stroke="#fff" stroke-width="1.7"/><text x="182.8" y="1315.5" text-anchor="middle" font-size="10.2" font-weight="800" fill="#07111f">C</text></g><text x="28" y="1430" font-family="system-ui,sans-serif" font-size="12" fill="#c6e1ed">ガラス反射 146</text><text x="28" y="1446" font-family="system-ui,sans-serif" font-size="12" fill="#c6e1ed">2回反射 546</text><text x="28" y="1462" font-family="system-ui,sans-serif" font-size="12" fill="#c6e1ed">共通3タップ 2192点</text><text x="28" y="1478" font-family="system-ui,sans-serif" font-size="12" fill="#c6e1ed">ビーコン間隔 50.12px</text><text x="28" y="1494" font-family="system-ui,sans-serif" font-size="12" fill="#c6e1ed">近接警告 1件</text><text x="28" y="1510" font-family="system-ui,sans-serif" font-size="12" fill="#c6e1ed">端余白 54px</text><rect x="12" y="1548" width="396" height="713" rx="18" fill="#0b1a28" stroke="#294b5d"/><text x="28" y="1582" font-family="system-ui,sans-serif" font-size="20" font-weight="800" fill="#f3fbff">候補C・開港型</text><g><rect x="57" y="1600" width="306" height="544" rx="12" fill="url(#water)" stroke="#57839a" stroke-width="2"/><rect x="57" y="1600" width="306" height="544" rx="12" fill="url(#grid)" opacity=".45"/><polyline points="121.6,1773.4 130.95,1770 140.3,1766.6 149.65,1763.2 159,1759.8 168.35,1756.4 177.7,1753 187.05,1749.6 196.4,1746.2 205.75,1742.8 215.1,1739.4" fill="none" stroke="#7de7ff" stroke-opacity=".42" stroke-width="1.7" stroke-dasharray="6 5"/><polyline points="298.4,1843.1 289.9,1847.35 281.4,1851.6 272.9,1855.85 264.4,1860.1 255.9,1864.35 247.4,1868.6 238.9,1872.85 230.4,1877.1 221.9,1881.35 213.4,1885.6" fill="none" stroke="#d8ff9a" stroke-opacity=".42" stroke-width="1.7" stroke-dasharray="6 5"/><polyline points="210,2033.5 215.1,2027.55 220.2,2021.6 225.3,2015.65 230.4,2009.7 235.5,2003.75 240.6,1997.8 245.7,1991.85 250.8,1985.9 255.9,1979.95 261,1974" fill="none" stroke="#d4a8ff" stroke-opacity=".42" stroke-width="1.7" stroke-dasharray="6 5"/><line x1="94.4" y1="1856.7" x2="164.1" y2="1807.4" stroke="#7cecff" stroke-opacity=".24" stroke-width="8.5" stroke-linecap="round"/><line x1="94.4" y1="1856.7" x2="164.1" y2="1807.4" stroke="#c2f6ff" stroke-width="2.55" stroke-linecap="round"/><line x1="257.6" y1="1792.1" x2="327.3" y2="1843.1" stroke="#ff8aa8" stroke-opacity=".24" stroke-width="8.5" stroke-linecap="round"/><line x1="257.6" y1="1792.1" x2="327.3" y2="1843.1" stroke="#ffc0cf" stroke-width="2.55" stroke-linecap="round"/><line x1="96.1" y1="2002.9" x2="172.6" y2="2040.3" stroke="#7cecff" stroke-opacity=".24" stroke-width="8.5" stroke-linecap="round"/><line x1="96.1" y1="2002.9" x2="172.6" y2="2040.3" stroke="#c2f6ff" stroke-width="2.55" stroke-linecap="round"/><line x1="247.4" y1="2042" x2="325.6" y2="1999.5" stroke="#7cecff" stroke-opacity=".24" stroke-width="8.5" stroke-linecap="round"/><line x1="247.4" y1="2042" x2="325.6" y2="1999.5" stroke="#c2f6ff" stroke-width="2.55" stroke-linecap="round"/><circle cx="133.5" cy="1719" r="11.05" fill="#ffb45b" fill-opacity=".12" stroke="#ffbe73" stroke-width="1.7"/><text x="133.5" y="1722.4" text-anchor="middle" font-size="10.2" font-weight="700" fill="#ffe4bd">1</text><circle cx="210" cy="1889" r="11.05" fill="#ffb45b" fill-opacity=".12" stroke="#ffbe73" stroke-width="1.7"/><text x="210" y="1892.4" text-anchor="middle" font-size="10.2" font-weight="700" fill="#ffe4bd">2</text><circle cx="286.5" cy="2016.5" r="11.05" fill="#ffb45b" fill-opacity=".12" stroke="#ffbe73" stroke-width="1.7"/><text x="286.5" y="2019.9" text-anchor="middle" font-size="10.2" font-weight="700" fill="#ffe4bd">3</text><circle cx="121.6" cy="1773.4" r="23.8" fill="#7de7ff" fill-opacity=".13"/><circle cx="121.6" cy="1773.4" r="13.6" fill="#7de7ff" stroke="#fff" stroke-width="1.7"/><text x="121.6" y="1776.8" text-anchor="middle" font-size="10.2" font-weight="800" fill="#07111f">A</text><circle cx="298.4" cy="1843.1" r="23.8" fill="#d8ff9a" fill-opacity=".13"/><circle cx="298.4" cy="1843.1" r="13.6" fill="#d8ff9a" stroke="#fff" stroke-width="1.7"/><text x="298.4" y="1846.5" text-anchor="middle" font-size="10.2" font-weight="800" fill="#07111f">B</text><circle cx="210" cy="2033.5" r="23.8" fill="#d4a8ff" fill-opacity=".13"/><circle cx="210" cy="2033.5" r="13.6" fill="#d4a8ff" stroke="#fff" stroke-width="1.7"/><text x="210" y="2036.9" text-anchor="middle" font-size="10.2" font-weight="800" fill="#07111f">C</text></g><text x="28" y="2165" font-family="system-ui,sans-serif" font-size="12" fill="#c6e1ed">ガラス反射 330</text><text x="28" y="2181" font-family="system-ui,sans-serif" font-size="12" fill="#c6e1ed">2回反射 516</text><text x="28" y="2197" font-family="system-ui,sans-serif" font-size="12" fill="#c6e1ed">共通3タップ 2650点</text><text x="28" y="2213" font-family="system-ui,sans-serif" font-size="12" fill="#c6e1ed">ビーコン間隔 118.12px</text><text x="28" y="2229" font-family="system-ui,sans-serif" font-size="12" fill="#c6e1ed">近接警告 1件</text><text x="28" y="2245" font-family="system-ui,sans-serif" font-size="12" fill="#c6e1ed">端余白 42px</text></svg>
