<svg xmlns="http://www.w3.org/2000/svg" width="1170" height="760" viewBox="0 0 1170 760" role="img" aria-labelledby="title desc"><title id="title">namioshi公式配置候補A・B・C比較</title><desc id="desc">3候補の盤面、ビーコン移動、ガラス片、共通3タップ、主要指標を横並びで示す。</desc><defs><linearGradient id="water" x1="0" y1="0" x2="0" y2="1"><stop offset="0" stop-color="#09263d"/><stop offset=".55" stop-color="#083047"/><stop offset="1" stop-color="#03101f"/></linearGradient><pattern id="grid" width="32" height="32" patternUnits="userSpaceOnUse"><path d="M32 0H0V32" fill="none" stroke="#9fe9ff" stroke-opacity=".14"/></pattern></defs><rect width="1170" height="760" fill="#07111f"/><text x="24" y="38" font-family="system-ui,sans-serif" font-size="26" font-weight="800" fill="#f2fbff">namioshi v3 公式配置候補 比較</text><text x="24" y="64" font-family="system-ui,sans-serif" font-size="13" fill="#b9d7e6">採用状態: 人の判断待ち。数字だけで自動選択しない。</text><rect x="12" y="82" width="366" height="650" rx="18" fill="#0b1a28" stroke="#294b5d"/><text x="28" y="116" font-family="system-ui,sans-serif" font-size="19" font-weight="800" fill="#f3fbff">候補A・交差流</text><g><rect x="58" y="138" width="259.2" height="460.79999999999995" rx="12" fill="url(#water)" stroke="#57839a" stroke-width="2"/><rect x="58" y="138" width="259.2" height="460.79999999999995" rx="12" fill="url(#grid)" opacity=".45"/><polyline points="121.36,267.6 128.56,271.2 135.76,274.8 142.96,278.4 150.16,282 157.36,285.6 164.56,289.2 171.76,292.8 178.96,296.4 186.16,300 193.36,303.6" fill="none" stroke="#7de7ff" stroke-opacity=".42" stroke-width="1.44" stroke-dasharray="6 5"/><polyline points="253.84,372.72 247.36,377.76 240.88,382.8 234.4,387.84 227.92,392.88 221.44,397.92 214.96,402.96 208.48,408 202,413.04 195.52,418.08 189.04,423.12" fill="none" stroke="#d8ff9a" stroke-opacity=".42" stroke-width="1.44" stroke-dasharray="6 5"/><polyline points="141.52,498 146.56,493.68 151.6,489.36 156.64,485.04 161.68,480.72 166.72,476.4 171.76,472.08 176.8,467.76 181.84,463.44 186.88,459.12 191.92,454.8" fill="none" stroke="#d4a8ff" stroke-opacity=".42" stroke-width="1.44" stroke-dasharray="6 5"/><line x1="111.28" y1="338.16" x2="176.08" y2="299.28" stroke="#ff8aa8" stroke-opacity=".24" stroke-width="7.199999999999999" stroke-linecap="round"/><line x1="111.28" y1="338.16" x2="176.08" y2="299.28" stroke="#ffc0cf" stroke-width="2.16" stroke-linecap="round"/><line x1="200.56" y1="319.44" x2="269.68" y2="359.76" stroke="#7cecff" stroke-opacity=".24" stroke-width="7.199999999999999" stroke-linecap="round"/><line x1="200.56" y1="319.44" x2="269.68" y2="359.76" stroke="#c2f6ff" stroke-width="2.16" stroke-linecap="round"/><line x1="112.72" y1="443.28" x2="180.4" y2="482.16" stroke="#ff8aa8" stroke-opacity=".24" stroke-width="7.199999999999999" stroke-linecap="round"/><line x1="112.72" y1="443.28" x2="180.4" y2="482.16" stroke="#ffc0cf" stroke-width="2.16" stroke-linecap="round"/><line x1="206.32" y1="473.52" x2="274" y2="433.2" stroke="#7cecff" stroke-opacity=".24" stroke-width="7.199999999999999" stroke-linecap="round"/><line x1="206.32" y1="473.52" x2="274" y2="433.2" stroke="#c2f6ff" stroke-width="2.16" stroke-linecap="round"/><circle cx="122.8" cy="238.8" r="9.36" fill="#ffb45b" fill-opacity=".12" stroke="#ffbe73" stroke-width="1.44"/><text x="122.8" y="241.68" text-anchor="middle" font-size="8.64" font-weight="700" fill="#ffe4bd">1</text><circle cx="187.6" cy="382.8" r="9.36" fill="#ffb45b" fill-opacity=".12" stroke="#ffbe73" stroke-width="1.44"/><text x="187.6" y="385.68" text-anchor="middle" font-size="8.64" font-weight="700" fill="#ffe4bd">2</text><circle cx="252.4" cy="490.8" r="9.36" fill="#ffb45b" fill-opacity=".12" stroke="#ffbe73" stroke-width="1.44"/><text x="252.4" y="493.68" text-anchor="middle" font-size="8.64" font-weight="700" fill="#ffe4bd">3</text><circle cx="121.36" cy="267.6" r="20.16" fill="#7de7ff" fill-opacity=".13"/><circle cx="121.36" cy="267.6" r="11.52" fill="#7de7ff" stroke="#fff" stroke-width="1.44"/><text x="121.36" y="270.48" text-anchor="middle" font-size="8.64" font-weight="800" fill="#07111f">A</text><circle cx="253.84" cy="372.72" r="20.16" fill="#d8ff9a" fill-opacity=".13"/><circle cx="253.84" cy="372.72" r="11.52" fill="#d8ff9a" stroke="#fff" stroke-width="1.44"/><text x="253.84" y="375.6" text-anchor="middle" font-size="8.64" font-weight="800" fill="#07111f">B</text><circle cx="141.52" cy="498" r="20.16" fill="#d4a8ff" fill-opacity=".13"/><circle cx="141.52" cy="498" r="11.52" fill="#d4a8ff" stroke="#fff" stroke-width="1.44"/><text x="141.52" y="500.88" text-anchor="middle" font-size="8.64" font-weight="800" fill="#07111f">C</text></g><text x="28" y="618" font-family="system-ui,sans-serif" font-size="13" fill="#c6e1ed">ガラス反射 359</text><text x="28" y="636" font-family="system-ui,sans-serif" font-size="13" fill="#c6e1ed">2回反射 652</text><text x="28" y="654" font-family="system-ui,sans-serif" font-size="13" fill="#c6e1ed">共通3タップ 2747点</text><text x="28" y="672" font-family="system-ui,sans-serif" font-size="13" fill="#c6e1ed">ビーコン間隔 44.18px</text><text x="28" y="690" font-family="system-ui,sans-serif" font-size="13" fill="#ffb2c5">近接警告 2件</text><text x="28" y="708" font-family="system-ui,sans-serif" font-size="13" fill="#c6e1ed">端余白 60px</text><rect x="402" y="82" width="366" height="650" rx="18" fill="#0b1a28" stroke="#294b5d"/><text x="418" y="116" font-family="system-ui,sans-serif" font-size="19" font-weight="800" fill="#f3fbff">候補B・段流路</text><g><rect x="448" y="138" width="259.2" height="460.79999999999995" rx="12" fill="url(#water)" stroke="#57839a" stroke-width="2"/><rect x="448" y="138" width="259.2" height="460.79999999999995" rx="12" fill="url(#grid)" opacity=".45"/><polyline points="532.96,253.2 538.72,258.24 544.48,263.28 550.24,268.32 556,273.36 561.76,278.4 567.52,283.44 573.28,288.48 579.04,293.52 584.8,298.56 590.56,303.6" fill="none" stroke="#7de7ff" stroke-opacity=".42" stroke-width="1.44" stroke-dasharray="6 5"/><polyline points="623.68,378.48 618.64,374.16 613.6,369.84 608.56,365.52 603.52,361.2 598.48,356.88 593.44,352.56 588.4,348.24 583.36,343.92 578.32,339.6 573.28,335.28" fill="none" stroke="#d8ff9a" stroke-opacity=".42" stroke-width="1.44" stroke-dasharray="6 5"/><polyline points="554.56,516.72 561.04,513.12 567.52,509.52 574,505.92 580.48,502.32 586.96,498.72 593.44,495.12 599.92,491.52 606.4,487.92 612.88,484.32 619.36,480.72" fill="none" stroke="#d4a8ff" stroke-opacity=".42" stroke-width="1.44" stroke-dasharray="6 5"/><line x1="489.76" y1="307.92" x2="556" y2="338.16" stroke="#7cecff" stroke-opacity=".24" stroke-width="7.199999999999999" stroke-linecap="round"/><line x1="489.76" y1="307.92" x2="556" y2="338.16" stroke="#c2f6ff" stroke-width="2.16" stroke-linecap="round"/><line x1="599.2" y1="292.08" x2="665.44" y2="256.08" stroke="#ff8aa8" stroke-opacity=".24" stroke-width="7.199999999999999" stroke-linecap="round"/><line x1="599.2" y1="292.08" x2="665.44" y2="256.08" stroke="#ffc0cf" stroke-width="2.16" stroke-linecap="round"/><line x1="504.16" y1="427.44" x2="571.84" y2="390" stroke="#7cecff" stroke-opacity=".24" stroke-width="7.199999999999999" stroke-linecap="round"/><line x1="504.16" y1="427.44" x2="571.84" y2="390" stroke="#c2f6ff" stroke-width="2.16" stroke-linecap="round"/><line x1="593.44" y1="447.6" x2="668.32" y2="479.28" stroke="#7cecff" stroke-opacity=".24" stroke-width="7.199999999999999" stroke-linecap="round"/><line x1="593.44" y1="447.6" x2="668.32" y2="479.28" stroke="#c2f6ff" stroke-width="2.16" stroke-linecap="round"/><circle cx="512.8" cy="238.8" r="9.36" fill="#ffb45b" fill-opacity=".12" stroke="#ffbe73" stroke-width="1.44"/><text x="512.8" y="241.68" text-anchor="middle" font-size="8.64" font-weight="700" fill="#ffe4bd">1</text><circle cx="577.6" cy="382.8" r="9.36" fill="#ffb45b" fill-opacity=".12" stroke="#ffbe73" stroke-width="1.44"/><text x="577.6" y="385.68" text-anchor="middle" font-size="8.64" font-weight="700" fill="#ffe4bd">2</text><circle cx="642.4" cy="490.8" r="9.36" fill="#ffb45b" fill-opacity=".12" stroke="#ffbe73" stroke-width="1.44"/><text x="642.4" y="493.68" text-anchor="middle" font-size="8.64" font-weight="700" fill="#ffe4bd">3</text><circle cx="532.96" cy="253.2" r="20.16" fill="#7de7ff" fill-opacity=".13"/><circle cx="532.96" cy="253.2" r="11.52" fill="#7de7ff" stroke="#fff" stroke-width="1.44"/><text x="532.96" y="256.08" text-anchor="middle" font-size="8.64" font-weight="800" fill="#07111f">A</text><circle cx="623.68" cy="378.48" r="20.16" fill="#d8ff9a" fill-opacity=".13"/><circle cx="623.68" cy="378.48" r="11.52" fill="#d8ff9a" stroke="#fff" stroke-width="1.44"/><text x="623.68" y="381.36" text-anchor="middle" font-size="8.64" font-weight="800" fill="#07111f">B</text><circle cx="554.56" cy="516.72" r="20.16" fill="#d4a8ff" fill-opacity=".13"/><circle cx="554.56" cy="516.72" r="11.52" fill="#d4a8ff" stroke="#fff" stroke-width="1.44"/><text x="554.56" y="519.6" text-anchor="middle" font-size="8.64" font-weight="800" fill="#07111f">C</text></g><text x="418" y="618" font-family="system-ui,sans-serif" font-size="13" fill="#c6e1ed">ガラス反射 146</text><text x="418" y="636" font-family="system-ui,sans-serif" font-size="13" fill="#c6e1ed">2回反射 546</text><text x="418" y="654" font-family="system-ui,sans-serif" font-size="13" fill="#c6e1ed">共通3タップ 2192点</text><text x="418" y="672" font-family="system-ui,sans-serif" font-size="13" fill="#c6e1ed">ビーコン間隔 50.12px</text><text x="418" y="690" font-family="system-ui,sans-serif" font-size="13" fill="#c6e1ed">近接警告 1件</text><text x="418" y="708" font-family="system-ui,sans-serif" font-size="13" fill="#c6e1ed">端余白 54px</text><rect x="792" y="82" width="366" height="650" rx="18" fill="#0b1a28" stroke="#294b5d"/><text x="808" y="116" font-family="system-ui,sans-serif" font-size="19" font-weight="800" fill="#f3fbff">候補C・開港型</text><g><rect x="838" y="138" width="259.2" height="460.79999999999995" rx="12" fill="url(#water)" stroke="#57839a" stroke-width="2"/><rect x="838" y="138" width="259.2" height="460.79999999999995" rx="12" fill="url(#grid)" opacity=".45"/><polyline points="892.72,284.88 900.64,282 908.56,279.12 916.48,276.24 924.4,273.36 932.32,270.48 940.24,267.6 948.16,264.72 956.08,261.84 964,258.96 971.92,256.08" fill="none" stroke="#7de7ff" stroke-opacity=".42" stroke-width="1.44" stroke-dasharray="6 5"/><polyline points="1042.48,343.92 1035.28,347.52 1028.08,351.12 1020.88,354.72 1013.68,358.32 1006.48,361.92 999.28,365.52 992.08,369.12 984.88,372.72 977.68,376.32 970.48,379.92" fill="none" stroke="#d8ff9a" stroke-opacity=".42" stroke-width="1.44" stroke-dasharray="6 5"/><polyline points="967.6,505.2 971.92,500.16 976.24,495.12 980.56,490.08 984.88,485.04 989.2,480 993.52,474.96 997.84,469.92 1002.16,464.88 1006.48,459.84 1010.8,454.8" fill="none" stroke="#d4a8ff" stroke-opacity=".42" stroke-width="1.44" stroke-dasharray="6 5"/><line x1="869.68" y1="355.44" x2="928.72" y2="313.68" stroke="#7cecff" stroke-opacity=".24" stroke-width="7.199999999999999" stroke-linecap="round"/><line x1="869.68" y1="355.44" x2="928.72" y2="313.68" stroke="#c2f6ff" stroke-width="2.16" stroke-linecap="round"/><line x1="1007.92" y1="300.72" x2="1066.96" y2="343.92" stroke="#ff8aa8" stroke-opacity=".24" stroke-width="7.199999999999999" stroke-linecap="round"/><line x1="1007.92" y1="300.72" x2="1066.96" y2="343.92" stroke="#ffc0cf" stroke-width="2.16" stroke-linecap="round"/><line x1="871.12" y1="479.28" x2="935.92" y2="510.96" stroke="#7cecff" stroke-opacity=".24" stroke-width="7.199999999999999" stroke-linecap="round"/><line x1="871.12" y1="479.28" x2="935.92" y2="510.96" stroke="#c2f6ff" stroke-width="2.16" stroke-linecap="round"/><line x1="999.28" y1="512.4" x2="1065.52" y2="476.4" stroke="#7cecff" stroke-opacity=".24" stroke-width="7.199999999999999" stroke-linecap="round"/><line x1="999.28" y1="512.4" x2="1065.52" y2="476.4" stroke="#c2f6ff" stroke-width="2.16" stroke-linecap="round"/><circle cx="902.8" cy="238.8" r="9.36" fill="#ffb45b" fill-opacity=".12" stroke="#ffbe73" stroke-width="1.44"/><text x="902.8" y="241.68" text-anchor="middle" font-size="8.64" font-weight="700" fill="#ffe4bd">1</text><circle cx="967.6" cy="382.8" r="9.36" fill="#ffb45b" fill-opacity=".12" stroke="#ffbe73" stroke-width="1.44"/><text x="967.6" y="385.68" text-anchor="middle" font-size="8.64" font-weight="700" fill="#ffe4bd">2</text><circle cx="1032.4" cy="490.8" r="9.36" fill="#ffb45b" fill-opacity=".12" stroke="#ffbe73" stroke-width="1.44"/><text x="1032.4" y="493.68" text-anchor="middle" font-size="8.64" font-weight="700" fill="#ffe4bd">3</text><circle cx="892.72" cy="284.88" r="20.16" fill="#7de7ff" fill-opacity=".13"/><circle cx="892.72" cy="284.88" r="11.52" fill="#7de7ff" stroke="#fff" stroke-width="1.44"/><text x="892.72" y="287.76" text-anchor="middle" font-size="8.64" font-weight="800" fill="#07111f">A</text><circle cx="1042.48" cy="343.92" r="20.16" fill="#d8ff9a" fill-opacity=".13"/><circle cx="1042.48" cy="343.92" r="11.52" fill="#d8ff9a" stroke="#fff" stroke-width="1.44"/><text x="1042.48" y="346.8" text-anchor="middle" font-size="8.64" font-weight="800" fill="#07111f">B</text><circle cx="967.6" cy="505.2" r="20.16" fill="#d4a8ff" fill-opacity=".13"/><circle cx="967.6" cy="505.2" r="11.52" fill="#d4a8ff" stroke="#fff" stroke-width="1.44"/><text x="967.6" y="508.08" text-anchor="middle" font-size="8.64" font-weight="800" fill="#07111f">C</text></g><text x="808" y="618" font-family="system-ui,sans-serif" font-size="13" fill="#c6e1ed">ガラス反射 330</text><text x="808" y="636" font-family="system-ui,sans-serif" font-size="13" fill="#c6e1ed">2回反射 516</text><text x="808" y="654" font-family="system-ui,sans-serif" font-size="13" fill="#c6e1ed">共通3タップ 2650点</text><text x="808" y="672" font-family="system-ui,sans-serif" font-size="13" fill="#c6e1ed">ビーコン間隔 118.12px</text><text x="808" y="690" font-family="system-ui,sans-serif" font-size="13" fill="#c6e1ed">近接警告 1件</text><text x="808" y="708" font-family="system-ui,sans-serif" font-size="13" fill="#c6e1ed">端余白 42px</text><text x="24" y="750" font-family="system-ui,sans-serif" font-size="12" fill="#8daebd">破線はビーコンの10秒移動経路。橙色の1〜3は共通タップ地点。桃色のガラスは近接警告対象。</text></svg>
